<svg width="109" height="38" viewBox="0 0 109 38" fill="none" xmlns="http://www.w3.org/2000/svg">
<path d="M16.5024 0L30.7938 8.25118V24.7535L16.5024 33.0047L2.2109 24.7535V8.25118L16.5024 0Z" fill="white"/>
<path d="M75 20.5025L99.7535 6.21106L99.7535 34.794L75 20.5025Z" fill="#FF7795"/>
<path d="M41.1256 23.6483C38.5727 19.2265 38.5727 13.7786 41.1256 9.35679V9.35679C43.6785 4.935 48.3965 2.21106 53.5024 2.21106V2.21106C58.6082 2.21106 63.3262 4.935 65.8791 9.35679V9.35679C68.4321 13.7786 68.4321 19.2265 65.8791 23.6483V23.6483C63.3262 28.07 58.6082 30.794 53.5024 30.794V30.794C48.3965 30.794 43.6785 28.07 41.1256 23.6483V23.6483Z" fill="white"/>
</svg>
